<?xml version="1.0" standalone="no"?><!DOCTYPE svg PUBLIC "-//W3C//DTD SVG 1.1//EN" "http://www.w3.org/Graphics/SVG/1.1/DTD/svg11.dtd"><svg t="1696590184797" class="icon" viewBox="0 0 1024 1024" version="1.1" xmlns="http://www.w3.org/2000/svg" p-id="4063" xmlns:xlink="http://www.w3.org/1999/xlink" width="200" height="200"><path d="M721.7 88.7c-10.9-3.1-32.5 4.6-44.7 17.7-16.2 15.4-33.2 20.1-65.9 20.1-30 0-54.1-18.9-72.6-35.7-7.8-7.1-17.2-10.6-26.6-10.8-9.5 0.2-18.9 3.7-26.6 10.8-18.4 16.8-42.6 35.7-72.6 35.7-32.7 0-49.6-4.7-65.9-20.1-12.2-13.1-33.7-20.8-44.7-17.7-47.3 13.4-65 48.7-65 114.4 0 75.6 47.3 102 105.1 102h339.4c57.8 0 105.1-26.4 105.1-102 0-65.7-17.7-101-65-114.4zM660.6 345.1H363.4C198.8 345.1 64 540 64 704.7 64 870.1 180.3 944 345.7 944h332.6C843 944 960 869.4 960 704.7S825.2 345.1 660.6 345.1z m5 106.9l-77 135.5h57.1c3.7 0 6.7 3 6.7 6.7v47.4c0 3.7-3 6.7-6.7 6.7h-89v34.9h88.9c3.7 0 6.7 3 6.7 6.7v47.4c0 3.7-3 6.7-6.7 6.7h-88.9v91.4c0 3.7-3 6.7-6.7 6.7h-73.9c-3.7 0-6.7-3-6.7-6.7v-91.2h-86c-3.7 0-6.7-3-6.7-6.7v-47.4c0-3.7 3-6.7 6.7-6.7h86v-34.9h-86c-3.7 0-6.7-3-6.7-6.7v-47.4c0-3.8 3-6.8 6.7-6.8h52.2L358.4 452c-2.5-4.4 0.6-10 5.8-10h86.6l63.5 122.1L577.5 442h82.2c5.1 0 8.4 5.5 5.9 10z" p-id="4064"></path></svg>