<?xml version="1.0" standalone="no"?><!DOCTYPE svg PUBLIC "-//W3C//DTD SVG 1.1//EN" "http://www.w3.org/Graphics/SVG/1.1/DTD/svg11.dtd"><svg t="1696433187218" class="icon" viewBox="0 0 1024 1024" version="1.1" xmlns="http://www.w3.org/2000/svg" p-id="1501" xmlns:xlink="http://www.w3.org/1999/xlink" width="200" height="200"><path d="M279.50503 226.584723c0-21.41087 15.359972-38.911929 34.257392-38.91193 18.89742 0 34.257392 17.501059 34.257393 39.00502V771.724095c0 21.597052-15.359972 39.098111-34.257393 39.098111-18.89742 0-34.257392-17.501059-34.257392-39.098111V226.584723z" p-id="1502" ></path><path d="M734.904929 67.958102V169.427008c0 6.23708-7.633441 34.722846-34.350483 34.722846-26.530861 0-34.536664-30.068309-34.536664-36.398479V79.501354A11.543252 11.543252 0 0 0 654.381439 67.958102H126.556945A11.543252 11.543252 0 0 0 114.920602 79.501354v793.505466c0 6.23708 5.213081 11.450161 11.729433 11.450161h527.824495a11.543252 11.543252 0 0 0 11.636343-11.450161v-88.715475c0-6.33017 9.215983-34.443574 33.791938-34.443574s35.002118 28.113403 35.002118 34.443574V884.36389c0 37.515568-30.813035 67.95624-68.887147 67.95624H114.920602a68.514785 68.514785 0 0 1-68.887147-67.95624V67.958102A68.514785 68.514785 0 0 1 114.920602 0.001862h551.09718a68.421694 68.421694 0 0 1 68.887147 67.95624z" p-id="1503"></path><path d="M470.899591 361.938658c0-23.272685 17.966513-29.602855 23.458867-29.602855h326.655406a10.0538 10.0538 0 0 0 9.960709-9.960709V259.725026c0-8.378167 9.867618-13.032704 16.290879-7.726531l126.044862 102.02745a9.867618 9.867618 0 0 1 0 15.266882L847.265452 473.926818a9.960709 9.960709 0 0 1-16.290879-7.726531v-64.698064a9.960709 9.960709 0 0 0-9.960709-9.960709H496.592635a28.671948 28.671948 0 0 1-25.693044-29.602856zM976.940853 588.335338c0-23.179594-18.059604-29.602855-23.551957-29.602856H626.919671a9.960709 9.960709 0 0 1-10.0538-9.960709v-62.556977a9.960709 9.960709 0 0 0-16.290879-7.633441L474.437039 580.608806a9.960709 9.960709 0 0 0 0 15.266881l126.044862 104.447811a9.960709 9.960709 0 0 0 16.290879-7.633441v-64.791155c0-5.492354 4.468356-9.960709 10.0538-9.960709h324.421229c5.492354 0 25.693044-6.423261 25.693044-29.602855z" p-id="1504" ></path></svg>